<svg id="2dc62b79-7689-4970-a486-bc0b8ad5821d" data-name="Calque 2" xmlns="http://www.w3.org/2000/svg" width="40" height="539.72" viewBox="0 0 40 539.72"><title>spriteCarte40Vent</title><rect width="40" height="30" style="fill:#fff;opacity:0"/><rect x="15.73" y="14.02" width="8.37" height="8.37" style="fill:#8e9da5"/><path d="M24.92,22.57h-10v-10h10Zm-8.37-1.65h6.72V14.2H16.55Z" style="fill:#b3c0c4"/><rect y="509.72" width="40" height="30" style="fill:#6d7e84;opacity:0"/><polygon points="28.61 46.57 11.21 39.8 14.65 46.75 11.38 53.33 28.61 46.57" style="fill:#8e9da5"/><polygon points="15.55 46.56 15.62 46.7 13.3 51.34 25.48 46.57 25.46 46.56 15.55 46.56" style="fill:#adb8bc"/><polygon points="28.44 293.18 25.17 286.6 28.61 279.65 11.21 286.43 28.44 293.18" style="fill:#8e9da5"/><polygon points="24.27 286.42 24.21 286.55 26.52 291.2 14.34 286.42 14.36 286.42 24.27 286.42" style="fill:#adb8bc"/><polygon points="29.13 321.39 16.55 307.59 16.54 315.35 10.69 319.79 29.13 321.39" style="fill:#8e9da5"/><polygon points="17.43 315.58 17.43 315.73 13.3 318.86 26.33 320 26.32 319.98 17.43 315.58" style="fill:#adb8bc"/><polygon points="28.53 351.93 20.36 335.14 18.16 342.57 11.29 345.18 28.53 351.93" style="fill:#8e9da5"/><polygon points="18.95 343.05 18.91 343.19 14.05 345.03 26.23 349.8 26.23 349.78 18.95 343.05" style="fill:#adb8bc"/><polygon points="29.16 377.92 23.68 373.04 24.27 365.31 10.66 378.09 29.16 377.92" style="fill:#8e9da5"/><polygon points="22.77 373.2 22.76 373.35 26.64 376.8 13.56 376.92 13.57 376.9 22.77 373.2" style="fill:#adb8bc"/><polygon points="28.65 404.88 21.9 402.01 20 394.5 11.17 410.95 28.65 404.88" style="fill:#8e9da5"/><polygon points="21.09 402.45 21.13 402.6 25.91 404.63 13.54 408.92 13.55 408.9 21.09 402.45" style="fill:#adb8bc"/><polygon points="26.01 423.77 21.19 429.31 13.45 428.8 26.37 442.28 26.01 423.77" style="fill:#8e9da5"/><polygon points="21.36 430.21 21.51 430.23 24.91 426.31 25.17 439.39 25.16 439.37 21.36 430.21" style="fill:#adb8bc"/><polygon points="26.34 458.51 19.01 459.01 13.91 453.17 13.49 471.83 26.34 458.51" style="fill:#8e9da5"/><polygon points="18.49 459.77 18.59 459.88 23.77 459.53 14.69 468.94 14.69 468.92 18.49 459.77" style="fill:#adb8bc"/><polygon points="26.67 485.88 20.11 489.18 13.15 485.77 20 503.14 26.67 485.88" style="fill:#8e9da5"/><polygon points="19.93 490.08 20.06 490.14 24.7 487.81 19.98 500.01 19.97 499.99 19.93 490.08" style="fill:#adb8bc"/><polygon points="28.33 100.86 11.49 108.93 18.91 111.17 21.48 118.05 28.33 100.86" style="fill:#8e9da5"/><polygon points="19.39 110.39 19.53 110.43 21.34 115.29 26.19 103.14 26.17 103.15 19.39 110.39" style="fill:#adb8bc"/><polygon points="26.98 131.24 12.84 143.44 20.59 143.66 24.87 149.63 26.98 131.24" style="fill:#8e9da5"/><polygon points="20.85 142.78 21 142.78 24.02 147 25.51 134.01 25.5 134.02 20.85 142.78" style="fill:#adb8bc"/><polygon points="14.67 159.68 13.49 178.31 19.07 172.93 26.33 174.05 14.67 159.68" style="fill:#8e9da5"/><polygon points="18.62 172.13 18.73 172.03 23.86 172.82 15.61 162.66 15.61 162.68 18.62 172.13" style="fill:#adb8bc"/><polygon points="10.66 194.01 24.71 206.31 23.85 198.6 29.16 193.53 10.66 194.01" style="fill:#8e9da5"/><polygon points="22.94 198.47 22.83 198.59 23.23 204.25 13.6 195.1 13.62 195.09 22.94 198.47" style="fill:#adb8bc"/><path d="M23.93,518.65a7.06,7.06,0,0,1,1.46,1.14,7,7,0,0,1,0,9.79,6.81,6.81,0,0,1-9.7,0,7,7,0,0,1,.08-9.79l1.81,3.32,1-7.32-8.14,1.74,3.87,1a8.9,8.9,0,0,0,0,12.53,8.76,8.76,0,0,0,12.46,0,9,9,0,0,0,0-12.6,8.6,8.6,0,0,0-2.32-1.64Z" style="fill:#8e9da5"/><path d="M16.1,519.53,17.29,522l.89-5.59" style="fill:#adb8bc"/><polygon points="29.25 74.6 10.58 74.46 16.26 79.73 15.54 87.04 29.25 74.6" style="fill:#8e9da5"/><polygon points="17.04 79.24 17.14 79.34 16.64 84.5 26.32 75.71 26.3 75.71 17.04 79.24" style="fill:#adb8bc"/><polygon points="11.26 219.96 19.59 236.67 21.72 229.21 28.56 226.55 11.26 219.96" style="fill:#8e9da5"/><polygon points="20.93 228.75 20.78 228.81 19 234.21 13.57 222.07 13.59 222.08 20.93 228.75" style="fill:#adb8bc"/><polygon points="19.92 246.99 13.15 264.39 20.1 260.95 26.67 264.22 19.92 246.99" style="fill:#8e9da5"/><polygon points="19.91 260.05 20.04 259.99 24.69 262.3 19.92 250.12 19.91 250.14 19.91 260.05" style="fill:#adb8bc"/></svg>